<svg width="24" height="25" viewBox="0 0 24 25" fill="none" xmlns="http://www.w3.org/2000/svg">
<path d="M19.27 6.0444C17.94 5.4244 16.5 4.9744 15 4.7144C14.9868 4.71398 14.9738 4.71645 14.9617 4.72163C14.9496 4.72682 14.9388 4.73459 14.93 4.7444C14.75 5.0744 14.54 5.5044 14.4 5.8344C12.809 5.5944 11.191 5.5944 9.6 5.8344C9.46 5.4944 9.25 5.0744 9.06 4.7444C9.05 4.7244 9.02 4.7144 8.99 4.7144C7.49 4.9744 6.06 5.4244 4.72 6.0444C4.71 6.0444 4.7 6.0544 4.69 6.0644C1.97 10.1344 1.22 14.0944 1.59 18.0144C1.59 18.0344 1.6 18.0544 1.62 18.0644C3.42 19.3844 5.15 20.1844 6.86 20.7144C6.89 20.7244 6.92 20.7144 6.93 20.6944C7.33 20.1444 7.69 19.5644 8 18.9544C8.02 18.9144 8 18.8744 7.96 18.8644C7.39 18.6444 6.85 18.3844 6.32 18.0844C6.28 18.0644 6.28 18.0044 6.31 17.9744C6.42 17.8944 6.53 17.8044 6.64 17.7244C6.66 17.7044 6.69 17.7044 6.71 17.7144C10.15 19.2844 13.86 19.2844 17.26 17.7144C17.28 17.7044 17.31 17.7044 17.33 17.7244C17.44 17.8144 17.55 17.8944 17.66 17.9844C17.7 18.0144 17.7 18.0744 17.65 18.0944C17.13 18.4044 16.58 18.6544 16.01 18.8744C15.97 18.8844 15.96 18.9344 15.97 18.9644C16.29 19.5744 16.65 20.1544 17.04 20.7044C17.07 20.7144 17.1 20.7244 17.13 20.7144C18.85 20.1844 20.58 19.3844 22.38 18.0644C22.4 18.0544 22.41 18.0344 22.41 18.0144C22.85 13.4844 21.68 9.5544 19.31 6.0644C19.3 6.0544 19.29 6.0444 19.27 6.0444ZM8.52 15.6244C7.49 15.6244 6.63 14.6744 6.63 13.5044C6.63 12.3344 7.47 11.3844 8.52 11.3844C9.58 11.3844 10.42 12.3444 10.41 13.5044C10.41 14.6744 9.57 15.6244 8.52 15.6244ZM15.49 15.6244C14.46 15.6244 13.6 14.6744 13.6 13.5044C13.6 12.3344 14.44 11.3844 15.49 11.3844C16.55 11.3844 17.39 12.3444 17.38 13.5044C17.38 14.6744 16.55 15.6244 15.49 15.6244Z" fill="url(#paint0_linear_368_21)"/>
<defs>
<linearGradient id="paint0_linear_368_21" x1="1.56625" y1="4.71435" x2="24.2472" y2="7.62775" gradientUnits="userSpaceOnUse">
<stop stop-color="#F7D153"/>
<stop offset="1" stop-color="#FFF6B9"/>
</linearGradient>
</defs>
</svg>
