<svg width="40" height="40" viewBox="0 0 40 40" fill="none" xmlns="http://www.w3.org/2000/svg">
<path fill-rule="evenodd" clip-rule="evenodd" d="M20 0C8.95431 0 0 8.95431 0 20C0 31.0457 8.95431 40 20 40C31.0457 40 40 31.0457 40 20C40 8.95431 31.0457 0 20 0ZM31.9913 16.0136C31.9765 16.6621 31.7531 17.2885 31.3541 17.8L19.9951 32.108L8.63909 17.8C8.23995 17.2887 8.01615 16.6625 8.00084 16.0141C7.98553 15.3656 8.17953 14.7295 8.55409 14.2L12.0851 9.257C12.3625 8.86832 12.7288 8.55149 13.1533 8.33286C13.5779 8.11423 14.0485 8.00011 14.5261 8H25.4641C25.9416 8.00011 26.4123 8.11423 26.8368 8.33286C27.2614 8.55149 27.6276 8.86832 27.9051 9.257L31.4361 14.2C31.8114 14.7291 32.0061 15.3651 31.9913 16.0136ZM18.0481 26.432L15.2481 17H10.5571L18.0481 26.432ZM21.9471 26.432L29.4331 17H24.7421L21.9471 26.432ZM19.9951 25.979L22.6561 17H17.3341L19.9951 25.979ZM18.7491 10L17.3211 15H22.6691L21.2411 10H18.7491ZM29.5501 15L26.2781 10.419C26.1856 10.2894 26.0634 10.1838 25.9219 10.1109C25.7803 10.038 25.6233 9.99998 25.4641 10H23.3211L24.7501 15H29.5501ZM14.0683 10.1109C13.9267 10.1838 13.8046 10.2894 13.7121 10.419L10.4411 15H15.2411L16.6691 10H14.5261C14.3668 9.99998 14.2099 10.038 14.0683 10.1109Z" fill="url(#paint0_linear_200_262)"/>
<defs>
<linearGradient id="paint0_linear_200_262" x1="0" y1="0" x2="40" y2="40" gradientUnits="userSpaceOnUse">
<stop stop-color="#C7A937"/>
<stop offset="1" stop-color="#F2E49B"/>
</linearGradient>
</defs>
</svg>
