<svg width="40" height="40" viewBox="0 0 40 40" fill="none" xmlns="http://www.w3.org/2000/svg">
<path fill-rule="evenodd" clip-rule="evenodd" d="M0 20C0 8.95431 8.95431 0 20 0C31.0457 0 40 8.95431 40 20C40 31.0457 31.0457 40 20 40C8.95431 40 0 31.0457 0 20ZM11.6667 27.7856V10.2856H10V27.7856C10 28.4487 10.2634 29.0846 10.7322 29.5534C11.2011 30.0223 11.837 30.2856 12.5 30.2856H30V28.619H12.5C12.279 28.619 12.067 28.5312 11.9107 28.3749C11.7545 28.2186 11.6667 28.0067 11.6667 27.7856ZM21.9325 14.2856H26.5158C26.8474 14.2856 27.1653 14.4173 27.3997 14.6518C27.6341 14.8862 27.7658 15.2041 27.7658 15.5356V20.119L25.4425 17.7998L20.6867 22.5556L19.02 20.889L14.1825 25.7223L13 24.5398L19.0158 18.524L20.6825 20.1906L24.26 16.6131L21.9325 14.2856Z" fill="url(#paint0_linear_200_251)"/>
<defs>
<linearGradient id="paint0_linear_200_251" x1="0" y1="0" x2="40" y2="40" gradientUnits="userSpaceOnUse">
<stop stop-color="#C7A937"/>
<stop offset="1" stop-color="#F2E49B"/>
</linearGradient>
</defs>
</svg>
