<svg width="40" height="40" viewBox="0 0 40 40" fill="none" xmlns="http://www.w3.org/2000/svg">
<path fill-rule="evenodd" clip-rule="evenodd" d="M20 0C8.95431 0 0 8.95431 0 20C0 31.0457 8.95431 40 20 40C31.0457 40 40 31.0457 40 20C40 8.95431 31.0457 0 20 0ZM26.2326 20.4053C26.7827 20.1338 27.3879 19.9925 28.0014 19.9927C28.8179 19.9927 29.6148 20.2426 30.2851 20.7088C30.9554 21.175 31.467 21.8351 31.7511 22.6006C32.0353 23.366 32.0784 24.2001 31.8747 24.9907C31.671 25.7814 31.2302 26.4908 30.6115 27.0236C29.9928 27.5564 29.2259 27.8871 28.4138 27.9713C27.6017 28.0555 26.7832 27.8892 26.0684 27.4947C25.3535 27.1002 24.7766 26.4963 24.4149 25.7643C24.0533 25.0323 23.9244 24.2071 24.0454 23.3997L23.7664 23.2807C22.9687 24.1961 21.8648 24.7895 20.6612 24.9498C19.4576 25.1101 18.2369 24.8264 17.2274 24.1517L15.3894 25.8697C15.9063 26.6945 16.1047 27.6795 15.9474 28.6402C15.7902 29.6008 15.288 30.4711 14.535 31.088C13.782 31.7049 12.8299 32.0261 11.8571 31.9913C10.8843 31.9565 9.95753 31.5682 9.25052 30.8991C8.54352 30.2299 8.10477 29.326 8.01649 28.3566C7.92821 27.3872 8.19647 26.4188 8.77099 25.633C9.34551 24.8472 10.1869 24.2979 11.1374 24.0879C12.0879 23.878 13.0824 24.0219 13.9344 24.4927L15.8194 22.7297C15.1277 21.676 14.8601 20.3997 15.0704 19.1569C15.2808 17.9142 15.9534 16.797 16.9534 16.0297L16.8804 15.8927C15.9318 16.106 14.938 15.9661 14.0852 15.4991C13.2324 15.0322 12.5792 14.2703 12.2479 13.3562C11.9166 12.4421 11.9301 11.4386 12.2857 10.5337C12.6414 9.62881 13.3148 8.88467 14.1798 8.44075C15.0448 7.99682 16.042 7.88357 16.9845 8.12223C17.927 8.36089 18.7502 8.93507 19.2996 9.73716C19.8491 10.5393 20.0873 11.5142 19.9694 12.4793C19.8515 13.4444 19.3858 14.3334 18.6594 14.9797L18.7504 15.1517C19.6172 14.9277 20.5282 14.9406 21.3884 15.189C22.2485 15.4374 23.0262 15.9121 23.6401 16.5637C24.2541 17.2153 24.6819 18.0198 24.8788 18.8931C25.0756 19.7665 25.0344 20.6767 24.7594 21.5287L24.8294 21.5587C25.2023 21.0716 25.6825 20.6769 26.2326 20.4053ZM14.3385 10.8815C14.1187 11.2104 14.0014 11.5971 14.0014 11.9927C14.0014 12.5231 14.2121 13.0318 14.5872 13.4069C14.9623 13.7819 15.471 13.9927 16.0014 13.9927C16.397 13.9927 16.7836 13.8754 17.1125 13.6556C17.4414 13.4358 17.6978 13.1235 17.8492 12.758C18.0005 12.3926 18.0401 11.9904 17.963 11.6025C17.8858 11.2145 17.6953 10.8582 17.4156 10.5784C17.1359 10.2987 16.7795 10.1083 16.3916 10.0311C16.0036 9.95392 15.6015 9.99353 15.236 10.1449C14.8706 10.2963 14.5582 10.5526 14.3385 10.8815ZM10.8903 29.6556C11.2191 29.8754 11.6058 29.9927 12.0014 29.9927C12.5318 29.9927 13.0405 29.7819 13.4156 29.4069C13.7907 29.0318 14.0014 28.5231 14.0014 27.9927C14.0014 27.5971 13.8841 27.2104 13.6643 26.8815C13.4446 26.5526 13.1322 26.2963 12.7668 26.1449C12.4013 25.9935 11.9992 25.9539 11.6112 26.0311C11.2232 26.1083 10.8669 26.2987 10.5872 26.5784C10.3075 26.8582 10.117 27.2145 10.0398 27.6025C9.96265 27.9904 10.0023 28.3926 10.1536 28.758C10.305 29.1235 10.5614 29.4358 10.8903 29.6556ZM18.2021 22.3888C18.7207 22.7795 19.3521 22.9914 20.0014 22.9927C20.4474 22.9932 20.8878 22.8943 21.2908 22.7032C21.6937 22.512 22.049 22.2335 22.3307 21.8877C22.6124 21.542 22.8135 21.1378 22.9193 20.7046C23.0252 20.2714 23.0331 19.82 22.9425 19.3833C22.8519 18.9466 22.6651 18.5356 22.3957 18.1803C22.1263 17.8249 21.781 17.534 21.385 17.3289C20.989 17.1237 20.5523 17.0095 20.1065 16.9944C19.6608 16.9793 19.2174 17.0638 18.8084 17.2417L18.4014 17.4587C17.8529 17.8062 17.4321 18.3224 17.202 18.9295C16.9719 19.5367 16.945 20.2021 17.1253 20.8259C17.3056 21.4497 17.6835 21.9981 18.2021 22.3888ZM26.8903 25.6556C27.2192 25.8754 27.6058 25.9927 28.0014 25.9927C28.5318 25.9927 29.0405 25.7819 29.4156 25.4069C29.7907 25.0318 30.0014 24.5231 30.0014 23.9927C30.0014 23.5971 29.8841 23.2104 29.6643 22.8815C29.4446 22.5526 29.1322 22.2963 28.7668 22.1449C28.4013 21.9935 27.9992 21.9539 27.6112 22.0311C27.2232 22.1083 26.8669 22.2987 26.5872 22.5784C26.3075 22.8582 26.117 23.2145 26.0398 23.6025C25.9627 23.9904 26.0023 24.3926 26.1536 24.758C26.305 25.1235 26.5614 25.4358 26.8903 25.6556Z" fill="url(#paint0_linear_200_259)"/>
<defs>
<linearGradient id="paint0_linear_200_259" x1="0" y1="0" x2="40" y2="40" gradientUnits="userSpaceOnUse">
<stop stop-color="#C7A937"/>
<stop offset="1" stop-color="#F2E49B"/>
</linearGradient>
</defs>
</svg>
