<svg width="40" height="40" viewBox="0 0 40 40" fill="none" xmlns="http://www.w3.org/2000/svg">
<path fill-rule="evenodd" clip-rule="evenodd" d="M0 20C0 8.95431 8.95431 0 20 0C31.0457 0 40 8.95431 40 20C40 31.0457 31.0457 40 20 40C8.95431 40 0 31.0457 0 20ZM19.948 32L19.594 31.843C19.2 31.67 10 27.515 10 19.991V13.467C10.0004 12.8392 10.1988 12.2275 10.567 11.719C10.9353 11.2105 11.4546 10.8312 12.051 10.635L20 8L27.949 10.635C28.5454 10.8312 29.0647 11.2105 29.433 11.719C29.8012 12.2275 29.9996 12.8392 30 13.467V19.991C30 28.568 20.712 31.746 20.316 31.878L19.948 32ZM20 10.097L12.684 12.523C12.4849 12.588 12.3116 12.7144 12.1887 12.8839C12.0658 13.0535 11.9998 13.2576 12 13.467V19.991C12 25.485 18.44 29.049 20.047 29.852C21.651 29.207 28 26.254 28 19.991V13.467C28.0002 13.2576 27.9342 13.0535 27.8113 12.8839C27.6884 12.7144 27.5151 12.588 27.316 12.523L20 10.097ZM19.078 22.5323H19.111C19.3587 22.5338 19.6042 22.4861 19.8334 22.3921C20.0625 22.298 20.2708 22.1594 20.446 21.9843L25.707 16.7233L24.293 15.3093L19.112 20.4903L16.868 18.1503L15.427 19.5323L17.733 21.9323C17.905 22.1181 18.1128 22.267 18.344 22.3702C18.5752 22.4733 18.8249 22.5285 19.078 22.5323Z" fill="url(#paint0_linear_200_255)"/>
<defs>
<linearGradient id="paint0_linear_200_255" x1="0" y1="0" x2="40" y2="40" gradientUnits="userSpaceOnUse">
<stop stop-color="#C7A937"/>
<stop offset="1" stop-color="#F2E49B"/>
</linearGradient>
</defs>
</svg>
